<?xml version="1.0" encoding="UTF-8"?>
<svg width="114px" height="36px" viewBox="0 0 114 36" version="1.1" xmlns="http://www.w3.org/2000/svg" xmlns:xlink="http://www.w3.org/1999/xlink">
    <!-- Generator: Sketch 46 (44423) - http://www.bohemiancoding.com/sketch -->
    <title>Fill 2</title>
    <desc>Created with Sketch.</desc>
    <defs></defs>
    <g id="Page-1" stroke="none" stroke-width="1" fill="none" fill-rule="evenodd">
        <g id="airbnb" transform="translate(-29.000000, -67.000000)" fill="#FF5A5F">
            <path d="M88.703,76.253 C88.703,77.528 87.676,78.555 86.401,78.555 C85.126,78.555 84.098,77.528 84.098,76.253 C84.098,74.978 85.09,73.951 86.401,73.951 C87.711,73.986 88.703,75.013 88.703,76.253 Z M79.21,80.893 C79.21,81.106 79.21,81.46 79.21,81.46 C79.21,81.46 78.112,80.043 75.775,80.043 C71.914,80.043 68.903,82.983 68.903,87.056 C68.903,91.094 71.878,94.07 75.775,94.07 C78.148,94.07 79.21,92.617 79.21,92.617 L79.21,93.22 C79.21,93.503 79.423,93.716 79.706,93.716 L82.575,93.716 L82.575,80.397 C82.575,80.397 79.954,80.397 79.706,80.397 C79.423,80.397 79.21,80.645 79.21,80.893 Z M79.21,89.43 C78.679,90.209 77.616,90.882 76.341,90.882 C74.074,90.882 72.339,89.465 72.339,87.056 C72.339,84.648 74.074,83.231 76.341,83.231 C77.581,83.231 78.714,83.939 79.21,84.683 L79.21,89.43 Z M84.701,93.715 L88.101,93.715 L88.101,80.397 L84.701,80.397 L84.701,93.715 Z M135.494,80.043 C133.157,80.043 132.059,81.46 132.059,81.46 L132.059,73.986 L128.658,73.986 L128.658,93.716 C128.658,93.716 131.279,93.716 131.527,93.716 C131.81,93.716 132.023,93.467 132.023,93.22 L132.023,92.617 C132.023,92.617 133.121,94.07 135.459,94.07 C139.32,94.07 142.331,91.094 142.331,87.056 C142.331,83.018 139.32,80.043 135.494,80.043 Z M134.928,90.846 C133.617,90.846 132.59,90.173 132.059,89.394 L132.059,84.648 C132.59,83.939 133.723,83.196 134.928,83.196 C137.195,83.196 138.93,84.612 138.93,87.021 C138.93,89.43 137.195,90.846 134.928,90.846 Z M126.887,85.817 L126.887,93.751 L123.487,93.751 L123.487,86.206 C123.487,84.01 122.778,83.125 120.865,83.125 C119.838,83.125 118.776,83.656 118.103,84.435 L118.103,93.716 L114.702,93.716 L114.702,80.397 L117.394,80.397 C117.678,80.397 117.89,80.645 117.89,80.893 L117.89,81.46 C118.882,80.433 120.192,80.043 121.503,80.043 C122.991,80.043 124.23,80.468 125.222,81.318 C126.427,82.31 126.887,83.585 126.887,85.817 Z M106.449,80.043 C104.111,80.043 103.013,81.46 103.013,81.46 L103.013,73.986 L99.613,73.986 L99.613,93.716 C99.613,93.716 102.234,93.716 102.482,93.716 C102.765,93.716 102.978,93.467 102.978,93.22 L102.978,92.617 C102.978,92.617 104.076,94.07 106.414,94.07 C110.275,94.07 113.286,91.094 113.286,87.056 C113.321,83.018 110.31,80.043 106.449,80.043 Z M105.882,90.846 C104.572,90.846 103.545,90.173 103.013,89.394 L103.013,84.648 C103.545,83.939 104.678,83.196 105.882,83.196 C108.149,83.196 109.885,84.612 109.885,87.021 C109.885,89.43 108.149,90.846 105.882,90.846 Z M96.673,80.043 C97.7,80.043 98.232,80.22 98.232,80.22 L98.232,83.373 C98.232,83.373 95.398,82.416 93.627,84.435 L93.627,93.751 L90.226,93.751 L90.226,80.397 C90.226,80.397 92.847,80.397 93.095,80.397 C93.379,80.397 93.591,80.645 93.591,80.893 L93.591,81.46 C94.229,80.716 95.61,80.043 96.673,80.043 Z M61.358,92.511 C61.181,92.086 61.004,91.626 60.827,91.236 C60.544,90.599 60.26,89.996 60.012,89.43 L59.977,89.394 C57.533,84.081 54.911,78.697 52.149,73.384 L52.042,73.171 C51.759,72.64 51.476,72.073 51.192,71.507 C50.838,70.869 50.484,70.196 49.917,69.558 C48.784,68.142 47.154,67.362 45.419,67.362 C43.648,67.362 42.054,68.142 40.885,69.488 C40.353,70.125 39.964,70.798 39.61,71.436 C39.326,72.002 39.043,72.569 38.76,73.101 L38.653,73.313 C35.926,78.626 33.269,84.01 30.825,89.323 L30.79,89.394 C30.542,89.961 30.258,90.563 29.975,91.201 C29.798,91.59 29.621,92.015 29.444,92.476 C28.983,93.786 28.842,95.026 29.019,96.301 C29.408,98.958 31.179,101.189 33.623,102.181 C34.544,102.571 35.501,102.748 36.492,102.748 C36.776,102.748 37.13,102.712 37.413,102.677 C38.582,102.535 39.787,102.146 40.956,101.473 C42.408,100.658 43.789,99.489 45.348,97.789 C46.906,99.489 48.323,100.658 49.74,101.473 C50.909,102.146 52.113,102.535 53.282,102.677 C53.565,102.712 53.92,102.748 54.203,102.748 C55.195,102.748 56.187,102.571 57.072,102.181 C59.552,101.189 61.287,98.922 61.677,96.301 C61.96,95.061 61.819,93.822 61.358,92.511 Z M45.383,94.353 C43.47,91.944 42.231,89.678 41.806,87.765 C41.629,86.95 41.593,86.242 41.699,85.604 C41.77,85.038 41.983,84.541 42.266,84.117 C42.939,83.16 44.073,82.558 45.383,82.558 C46.694,82.558 47.863,83.125 48.5,84.117 C48.784,84.541 48.996,85.038 49.067,85.604 C49.173,86.242 49.138,86.985 48.961,87.765 C48.536,89.642 47.296,91.909 45.383,94.353 Z M59.516,96.018 C59.268,97.86 58.029,99.454 56.293,100.162 C55.443,100.516 54.522,100.623 53.601,100.516 C52.715,100.41 51.83,100.127 50.909,99.595 C49.634,98.887 48.359,97.789 46.871,96.16 C49.209,93.29 50.626,90.669 51.157,88.332 C51.405,87.234 51.44,86.242 51.334,85.321 C51.192,84.435 50.873,83.621 50.378,82.912 C49.28,81.318 47.438,80.397 45.383,80.397 C43.329,80.397 41.487,81.354 40.389,82.912 C39.893,83.621 39.574,84.435 39.433,85.321 C39.291,86.242 39.326,87.269 39.61,88.332 C40.141,90.669 41.593,93.326 43.896,96.195 C42.443,97.824 41.133,98.922 39.858,99.631 C38.937,100.162 38.051,100.446 37.166,100.552 C36.209,100.658 35.288,100.516 34.474,100.198 C32.738,99.489 31.498,97.895 31.25,96.053 C31.144,95.168 31.215,94.282 31.569,93.29 C31.676,92.936 31.852,92.582 32.03,92.157 C32.278,91.59 32.561,90.988 32.844,90.386 L32.88,90.315 C35.324,85.038 37.945,79.653 40.672,74.411 L40.779,74.199 C41.062,73.667 41.345,73.101 41.629,72.569 C41.912,72.002 42.231,71.471 42.62,71.011 C43.364,70.161 44.356,69.7 45.454,69.7 C46.552,69.7 47.544,70.161 48.288,71.011 C48.677,71.471 48.996,72.002 49.28,72.569 C49.563,73.101 49.846,73.667 50.13,74.199 L50.236,74.411 C52.928,79.689 55.549,85.073 57.993,90.351 L57.993,90.386 C58.276,90.953 58.524,91.59 58.808,92.157 C58.985,92.582 59.162,92.936 59.268,93.29 C59.552,94.211 59.658,95.097 59.516,96.018 L59.516,96.018 Z" id="Fill-2"></path>
        </g>
    </g>
</svg>