<svg fill="#009fd5" xmlns="http://www.w3.org/2000/svg" viewBox="0 0 147.9 59.2"><g><path d="M113.6 12.4l-6.8 34.5c-.1.3-.4.6-.7.6H100c-.4 0-.8-.4-.7-.8l6.8-34.5c.1-.3.4-.6.7-.6h6.2c.4 0 .7.4.6.8m27.1-.5l-27 34.5c-.4.5 0 1.1.5 1.1h6c.2 0 .4-.1.5-.2l27.1-34.5c.4-.5 0-1.1-.5-1.1h-5.9c-.3-.1-.6 0-.7.2m-53.9-.3h-7c-.3 0-.6.2-.7.6l-6.8 34.5c-.1.4.2.8.7.8h6.2c.3 0 .6-.2.7-.6l5.6-28.3c.1-.3.4-.6.7-.6h12.1c.3 0 .6-.2.7-.6l1-5c.1-.4-.2-.8-.7-.8H86.8zM84 32.7h11.3c.4 0 .7-.3.7-.6l1-5c.1-.4-.2-.8-.7-.8h-11L84 32.7zm47.5-11.1l-3.8-9.6c-.1-.3-.3-.4-.6-.4h-6.2c-.4 0-.8.5-.6.9l6.1 15.6 5.1-6.5zM130 37.4l3.8 9.6c.1.3.4.5.7.5h6.1c.5 0 .8-.5.6-.9L135.1 31l-5.1 6.4zM32.3.1c-.9-.1-1.8-.1-2.8-.1C13.2 0 0 13.3 0 29.7c0 15.5 12 28.2 27.2 29.4.8.1 1.6.1 2.5.1 16.3 0 29.6-13.3 29.5-29.7 0-15.4-11.9-28-26.9-29.4zm-15 5.4c1.8-.2 3.4 1.1 3.6 2.8.2 1.8-1.1 3.4-2.8 3.6-1.8.2-3.4-1.1-3.6-2.8-.3-1.8 1-3.4 2.8-3.6zM7.1 21.4c.3-.9.7-1.9 1.2-2.7.2-.4.7-.5 1.1-.2 4.8 4.1 12.1 4 16.9-.4 3.3-3 4.6-7.4 3.9-11.5-.1-.4.3-.8.7-.8.8 0 2.2.2 3 .4.3 0 .5.3.6.6.1.9.1 1.8.1 2.8 0 .3.2.6.5.7l1.3.4c.3.1.6.5.5.8l-.4 1.9c-.1.4-.4.6-.8.6l-1.4-.1c-.3 0-.6.2-.7.5-.3.8-.6 1.6-1 2.4-.1.3-.1.6.1.8l1 1c.3.2.3.7.1 1l-1.1 1.6c-.2.3-.6.4-.9.2l-1.2-.7c-.3-.1-.6-.1-.8.1l-.6.6c-.5.4-1 .9-1.5 1.2-.3.2-.4.5-.2.8l.5 1.3c.1.3 0 .7-.3.9l-1.7.9c-.3.2-.7.1-.9-.2l-.8-1.2c-.2-.3-.5-.4-.8-.3-.8.3-1.5.5-2.3.6-.3.1-.5.3-.6.6l-.1 1.4c0 .4-.3.7-.7.7l-1.9.1c-.4 0-.7-.2-.7-.6l-.2-1.4c-.1-.3-.3-.5-.6-.6-.8-.1-1.6-.2-2.4-.4-.3-.1-.6.1-.8.3l-.7 1.2c-.2.3-.6.5-.9.3l-1.8-.7c-.3-.1-.5-.5-.4-.9l.4-1.4c.1-.3-.1-.6-.3-.8L7.7 22c-.6 0-.7-.4-.6-.6zm10.7 32.4c-1.8 0-3.2-1.4-3.2-3.2 0-1.8 1.4-3.2 3.2-3.2 1.8 0 3.2 1.4 3.2 3.2 0 1.7-1.5 3.2-3.2 3.2zm18.8-4.5l-1.4.4c-.3.1-.5.4-.5.7v.9c0 .4-.1.9-.1 1.3 0 .3-.3.5-.6.6-1 .2-2 .3-3 .4-.4 0-.8-.4-.7-.8.1-.5.1-1.1.2-1.6.3-7-5.2-13-12.2-13.3-3.4-.1-6.5 1-8.9 3.1-.3.3-.9.2-1.1-.2-.5-.9-.9-1.8-1.2-2.7-.1-.3 0-.6.2-.8.5-.4 1-.7 1.5-1.1.3-.2.4-.5.3-.8L8.8 34c-.1-.3.1-.7.4-.9l1.8-.8c.3-.1.7 0 .9.3l.7 1.2c.2.3.5.4.8.3.9-.2 1.8-.4 2.7-.5.3 0 .6-.3.6-.6l.2-1.4c.1-.4.4-.6.7-.6l1.9.1c.4 0 .7.3.7.7l.1 1.4c0 .3.3.6.6.6 1.1.2 2.2.5 3.2.9.3.1.6 0 .8-.2l.8-1.1c.2-.3.6-.4.9-.2l1.7 1c.3.2.4.6.3.9l-.6 1.3c-.1.3 0 .6.2.8.7.6 1.4 1.2 2 1.9.2.2.5.3.8.2l1.2-.6c.3-.2.7-.1.9.2l1.1 1.6c.2.3.2.7-.1.9l-1.1.9c-.2.2-.3.5-.2.8.4.8.7 1.6.9 2.4.1.3.4.5.7.5H36c.4 0 .7.2.7.6l.3 1.9c.1.4-.1.7-.4.8zm13.1-6.7c-.6.9-1.2 1.7-1.9 2.5-.2.2-.5.3-.7.2-.2-.1-.4-.2-.6-.2-.6-.3-1.2-.6-1.7-.9-.3-.2-.6-.2-.8.1l-1 1c-.2.2-.6.3-.9 0l-1.5-1.2c-.3-.2-.4-.6-.2-.9l.7-1.2c.2-.3.1-.6-.1-.8-.6-.6-1.1-1.2-1.5-1.9-.2-.3-.5-.4-.8-.3l-1.3.5c-.3.1-.7 0-.9-.4l-.9-1.7c-.2-.3-.1-.7.2-.9l1.2-.8c.3-.2.4-.5.3-.8-.3-.8-.5-1.6-.6-2.4-.1-.3-.3-.5-.6-.6l-1.4-.1c-.4 0-.6-.3-.7-.7l-.1-1.9c0-.4.3-.7.6-.7l1.4-.2c.3 0 .5-.3.6-.6.1-.9.3-1.8.5-2.7.1-.3 0-.6-.3-.8l-1.2-.7c-.3-.2-.4-.6-.3-.9l.8-1.8c.1-.3.5-.5.9-.4l1.3.4c.3.1.6 0 .8-.3.6-.9 1.3-1.8 2-2.6.2-.2.3-.6.1-.8l-.7-1.2c-.2-.3-.1-.7.2-.9l1.5-1.2c.3-.2.7-.2 1 .1l1 1c.2.2.6.3.8.1.7-.4 1.4-.8 2.2-1.1.3-.1.6 0 .8.2.7.8 1.3 1.6 1.8 2.4.3.4.1.9-.4 1-3.3 1.1-6 3.5-7.5 6.9-2.8 6.5.1 14 6.5 16.8.4.2.8.3 1.1.4.4.2.5.7.3 1zm3.7-9.9c-1.8-.2-3-1.8-2.8-3.6.2-1.8 1.8-3 3.6-2.8 1.8.2 3 1.8 2.8 3.6-.2 1.8-1.8 3-3.6 2.8z"></path></g></svg>
